
<!-- Generator: visioncortex VTracer 0.6.4 -->
<svg version="1.1" xmlns="http://www.w3.org/2000/svg" viewBox="75 177 802 601" preserveAspectRatio="xMidYMid meet">
<path d="M0 0 C1.714 2.297 3.275 4.587 4.812 7 C5.529 8.116 5.529 8.116 6.26 9.254 C16.082 24.831 25.888 41.657 32.062 59.062 C33.573 63.231 35.09 67.336 37.062 71.312 C40.163 78.054 41.619 85.477 43.402 92.65 C43.923 94.699 44.491 96.735 45.066 98.77 C51.132 120.723 52.388 142.723 52.438 165.375 C52.444 166.423 52.45 167.47 52.456 168.55 C52.531 188.258 50.664 207.536 46.188 226.75 C45.931 227.876 45.675 229.001 45.41 230.161 C43.286 239.254 40.733 248.15 37.694 256.978 C37.04 258.882 36.416 260.796 35.793 262.711 C32.934 271.221 29.155 279.041 25.031 286.985 C24.034 288.933 23.075 290.895 22.129 292.867 C14.593 308.511 5.785 323.376 -5 337 C-5.823 338.085 -6.643 339.172 -7.461 340.262 C-15.783 351.288 -25.052 361.238 -34.811 370.996 C-36.437 372.625 -38.056 374.261 -39.674 375.898 C-45.802 382.06 -52.071 387.73 -59 393 C-60.099 393.87 -61.197 394.743 -62.293 395.617 C-83.129 411.87 -106.178 426.084 -130.438 436.562 C-131.48 437.018 -132.522 437.474 -133.596 437.943 C-136.726 439.307 -139.861 440.656 -143 442 C-143.977 442.422 -144.954 442.844 -145.961 443.279 C-153.569 446.518 -161.286 449.313 -169.125 451.938 C-169.767 452.153 -170.409 452.368 -171.07 452.59 C-184.183 456.962 -197.461 460.214 -211 463 C-211.807 463.179 -212.614 463.358 -213.446 463.543 C-220.698 465.108 -227.998 465.841 -235.375 466.562 C-236.612 466.688 -237.85 466.814 -239.125 466.943 C-241.595 467.192 -244.067 467.434 -246.538 467.669 C-248.63 467.869 -250.722 468.078 -252.811 468.303 C-263.197 469.336 -273.636 469.244 -284.062 469.25 C-285.087 469.251 -286.112 469.251 -287.168 469.252 C-303.323 469.235 -319.022 468.551 -335 466 C-336.108 465.834 -337.216 465.667 -338.357 465.496 C-400.182 456.102 -459.322 430.297 -508 391 C-508.563 390.552 -509.127 390.104 -509.708 389.643 C-518.268 382.801 -526.048 375.154 -533.812 367.438 C-534.301 366.954 -534.789 366.471 -535.293 365.974 C-541.991 359.331 -548.141 352.396 -554 345 C-555.311 343.395 -556.623 341.79 -557.938 340.188 C-562.895 333.989 -567.436 327.49 -572 321 C-570.584 317.571 -569.084 316.081 -566 314.062 C-561.07 310.743 -556.245 307.306 -551.438 303.812 C-543.379 297.976 -535.266 292.22 -527.126 286.497 C-524.222 284.452 -521.321 282.4 -518.422 280.347 C-516.987 279.333 -515.549 278.323 -514.109 277.317 C-510.814 275.014 -507.564 272.685 -504.395 270.211 C-503.546 269.569 -503.546 269.569 -502.681 268.915 C-501.181 267.777 -499.701 266.614 -498.223 265.449 C-495 264 -495 264 -485 265 C-484.505 281.83 -484.505 281.83 -484 299 C-478.493 299.712 -478.493 299.712 -472.875 300.438 C-471.187 300.659 -471.187 300.659 -469.464 300.885 C-455.05 302.715 -440.76 303.207 -426.25 303.188 C-425.343 303.187 -424.437 303.186 -423.503 303.185 C-408.584 303.151 -393.835 302.695 -379 301 C-377.971 300.883 -377.971 300.883 -376.921 300.764 C-358.544 298.668 -340.364 296.097 -322.253 292.304 C-284.406 284.394 -244.878 277.654 -206.21 276.114 C-203.708 275.985 -201.219 275.765 -198.723 275.555 C-184.281 274.607 -184.281 274.607 -179.465 278.172 C-176.583 280.807 -174.293 283.845 -172 287 C-170.868 288.303 -169.723 289.597 -168.562 290.875 C-168.028 291.501 -167.493 292.128 -166.941 292.773 C-164.355 295.74 -161.677 298.616 -159 301.5 C-155.166 305.635 -151.381 309.8 -147.688 314.062 C-141.741 320.89 -135.594 327.537 -129.445 334.18 C-126.418 337.453 -123.415 340.744 -120.438 344.062 C-117.007 347.882 -113.575 351.699 -110.125 355.5 C-109.66 356.017 -109.195 356.534 -108.717 357.067 C-106.576 359.417 -104.664 361.224 -102 363 C-101.729 362.419 -101.458 361.838 -101.179 361.24 C-100 358.999 -98.692 357.153 -97.129 355.164 C-96.56 354.437 -95.992 353.71 -95.406 352.96 C-94.493 351.804 -94.493 351.804 -93.562 350.625 C-92.934 349.823 -92.305 349.021 -91.657 348.194 C-90.376 346.561 -89.094 344.93 -87.81 343.299 C-86.22 341.279 -84.634 339.256 -83.051 337.23 C-77.887 330.63 -72.664 324.078 -67.416 317.543 C-64.164 313.483 -60.969 309.384 -57.812 305.25 C-54.102 300.393 -50.284 295.639 -46.398 290.922 C-38.603 281.425 -31.021 271.773 -23.582 261.995 C-20.1 257.422 -16.556 252.909 -12.945 248.438 C-10.223 245.027 -7.574 241.561 -4.921 238.097 C-1.811 234.041 1.336 230.014 4.5 226 C11.784 216.754 18.937 207.417 26 198 C5.21 198 -15.58 198 -37 198 C-37.33 152.79 -37.66 107.58 -38 61 C-45.92 58.525 -45.92 58.525 -54 56 C-54 52 -54 52 -52.039 49.545 C-51.122 48.63 -50.204 47.715 -49.258 46.772 C-48.754 46.265 -48.25 45.757 -47.731 45.234 C-46.062 43.557 -44.379 41.896 -42.695 40.234 C-41.534 39.075 -40.372 37.915 -39.212 36.754 C-36.779 34.324 -34.338 31.9 -31.893 29.481 C-28.753 26.375 -25.626 23.256 -22.504 20.133 C-20.108 17.737 -17.706 15.346 -15.303 12.958 C-14.148 11.809 -12.994 10.659 -11.842 9.508 C-10.233 7.903 -8.618 6.306 -7 4.71 C-5.621 3.342 -5.621 3.342 -4.215 1.947 C-2 0 -2 0 0 0 Z " fill="#89B9C7" transform="translate(804,314)"/>
<path d="M0 0 C0 61.71 0 123.42 0 187 C-6.344 187 -11.014 186.873 -17 186 C-20.324 185.846 -23.645 185.836 -26.973 185.832 C-28.411 185.827 -28.411 185.827 -29.879 185.822 C-31.91 185.817 -33.941 185.815 -35.973 185.815 C-39.001 185.813 -42.029 185.794 -45.057 185.775 C-62.795 185.724 -80.328 187.051 -97.875 189.688 C-98.985 189.854 -100.096 190.021 -101.24 190.192 C-124.135 193.788 -146.657 199.583 -169.152 205.086 C-188.09 209.718 -207.048 213.901 -226.215 217.475 C-231.629 218.496 -237.03 219.588 -242.423 220.715 C-251.306 222.545 -260.183 224.094 -269.188 225.188 C-269.898 225.274 -270.608 225.361 -271.34 225.451 C-286.411 227.221 -301.465 227.351 -316.625 227.312 C-317.77 227.31 -318.914 227.307 -320.094 227.305 C-323.388 227.292 -326.682 227.269 -329.977 227.238 C-331.447 227.227 -331.447 227.227 -332.946 227.215 C-349.004 226.996 -349.004 226.996 -351 225 C-351.098 222.572 -351.13 220.171 -351.12 217.743 C-351.121 216.974 -351.122 216.205 -351.123 215.414 C-351.125 212.819 -351.119 210.224 -351.114 207.629 C-351.113 205.776 -351.113 203.924 -351.114 202.072 C-351.114 197.026 -351.108 191.981 -351.101 186.936 C-351.095 181.669 -351.095 176.403 -351.093 171.137 C-351.09 161.156 -351.082 151.176 -351.072 141.196 C-351.061 129.837 -351.055 118.478 -351.05 107.119 C-351.04 83.746 -351.022 60.373 -351 37 C-350.295 37.004 -349.59 37.007 -348.863 37.011 C-342.115 37.046 -335.367 37.071 -328.619 37.087 C-325.152 37.096 -321.686 37.108 -318.219 37.127 C-296.217 37.247 -274.757 36.291 -253 33 C-251.815 32.823 -250.63 32.647 -249.409 32.465 C-241.936 31.313 -234.521 29.931 -227.111 28.428 C-224.76 27.951 -222.408 27.481 -220.056 27.01 C-199.141 22.813 -178.414 18.265 -157.806 12.744 C-109.845 0.031 -49.033 -14.009 0 0 Z " fill="#A8D0D9" transform="translate(697,334)"/>
<path d="M0 0 C0.995 -0.005 1.989 -0.009 3.014 -0.014 C3.971 -0.012 4.928 -0.01 5.914 -0.008 C6.751 -0.007 7.589 -0.006 8.452 -0.004 C12.44 0.172 16.407 0.684 20.375 1.125 C20.375 52.935 20.375 104.745 20.375 158.125 C17.007 159.472 14.152 160.521 10.697 161.358 C9.791 161.579 8.886 161.8 7.952 162.028 C6.977 162.261 6.001 162.494 4.996 162.734 C3.968 162.982 2.939 163.23 1.88 163.485 C-1.474 164.288 -4.83 165.083 -8.188 165.875 C-9.328 166.144 -10.468 166.414 -11.643 166.692 C-26.423 170.167 -41.205 173.4 -56.188 175.875 C-56.916 175.997 -57.644 176.12 -58.395 176.246 C-79.335 179.721 -79.335 179.721 -83.629 176.728 C-85.473 174.972 -87.04 173.116 -88.625 171.125 C-89.641 169.954 -90.662 168.788 -91.688 167.625 C-92.55 166.625 -92.55 166.625 -93.43 165.605 C-96.332 162.327 -99.32 159.133 -102.312 155.938 C-102.918 155.291 -103.524 154.644 -104.147 153.978 C-105.377 152.665 -106.606 151.353 -107.835 150.04 C-114.752 142.64 -121.599 135.178 -128.363 127.637 C-135.507 119.703 -142.776 111.884 -150.054 104.073 C-153.487 100.379 -156.84 96.631 -160.125 92.805 C-161.702 91.039 -163.361 89.396 -165.062 87.75 C-167.625 85.125 -167.625 85.125 -167.625 83.125 C-168.285 83.125 -168.945 83.125 -169.625 83.125 C-171.141 81.621 -171.141 81.621 -172.875 79.562 C-173.49 78.839 -174.105 78.116 -174.738 77.371 C-175.672 76.259 -175.672 76.259 -176.625 75.125 C-177.77 73.791 -178.915 72.457 -180.062 71.125 C-180.908 70.135 -181.754 69.145 -182.625 68.125 C-185.952 71.365 -188.98 74.683 -191.875 78.312 C-194.885 82.036 -197.959 85.652 -201.188 89.188 C-204.036 92.316 -206.758 95.488 -209.375 98.812 C-213.347 103.855 -217.545 108.679 -221.765 113.513 C-225.801 118.146 -229.706 122.863 -233.574 127.637 C-236.813 131.566 -240.221 135.339 -243.625 139.125 C-251.666 148.205 -259.627 157.378 -267.25 166.812 C-270.219 170.475 -273.295 173.98 -276.5 177.438 C-281.366 182.722 -285.791 188.281 -290.18 193.961 C-292.3 196.704 -294.459 199.418 -296.625 202.125 C-277.815 202.125 -259.005 202.125 -239.625 202.125 C-239.625 266.805 -239.625 331.485 -239.625 398.125 C-238.305 398.125 -236.985 398.125 -235.625 398.125 C-236.999 401.39 -238.357 402.937 -241.309 404.867 C-242.062 405.369 -242.815 405.87 -243.59 406.387 C-244.814 407.185 -244.814 407.185 -246.062 408 C-252.916 412.574 -259.642 417.265 -266.25 422.188 C-272.477 426.814 -278.733 431.391 -285.062 435.875 C-285.766 436.377 -286.47 436.878 -287.196 437.395 C-288.18 438.089 -288.18 438.089 -289.184 438.797 C-289.754 439.2 -290.324 439.603 -290.912 440.019 C-292.755 441.209 -294.647 442.178 -296.625 443.125 C-332.007 389.765 -342.268 316.607 -330.302 254.417 C-320.512 206.827 -300.377 162.905 -269.625 125.125 C-269.207 124.611 -268.789 124.097 -268.359 123.567 C-262.814 116.784 -257.001 110.253 -251.062 103.812 C-250.454 103.148 -249.846 102.483 -249.22 101.797 C-248.651 101.187 -248.082 100.578 -247.496 99.949 C-246.99 99.404 -246.484 98.858 -245.963 98.296 C-244.625 97.125 -244.625 97.125 -242.625 97.125 C-242.625 96.465 -242.625 95.805 -242.625 95.125 C-241.965 95.125 -241.305 95.125 -240.625 95.125 C-240.625 94.465 -240.625 93.805 -240.625 93.125 C-239.367 91.82 -239.367 91.82 -237.5 90.25 C-236.767 89.629 -236.033 89.007 -235.277 88.367 C-234.402 87.627 -233.527 86.887 -232.625 86.125 C-231.583 85.213 -230.543 84.299 -229.504 83.383 C-175.652 36.138 -109.898 11.316 -39.625 2.125 C-38.87 2.023 -38.116 1.92 -37.338 1.815 C-24.979 0.179 -12.449 0.032 0 0 Z " fill="#B1D7DF" transform="translate(517.625,173.875)"/>
<path d="M0 0 C23.017 2.302 23.017 2.302 31.688 4.375 C32.656 4.598 33.624 4.821 34.621 5.05 C36.546 5.494 38.469 5.943 40.392 6.396 C42.649 6.919 44.909 7.403 47.18 7.863 C68.922 12.479 90.205 20.447 110.333 29.768 C112.971 30.987 115.623 32.174 118.277 33.359 C153.3 49.241 184.685 72.615 211.875 99.625 C212.743 100.483 213.61 101.342 214.504 102.226 C220.433 108.184 225.791 114.406 231 121 C222.276 131.592 212.314 141.168 202.678 150.922 C199.338 154.303 196.009 157.693 192.702 161.107 C189.488 164.424 186.251 167.717 182.995 170.993 C181.762 172.241 180.539 173.498 179.324 174.764 C169.888 184.577 169.888 184.577 165.36 185.591 C162.954 185.38 161.22 184.935 159 184 C157.35 183.34 155.7 182.68 154 182 C153.67 169.46 153.34 156.92 153 144 C111.744 136.804 72.793 137.058 31.5 144 C30.752 144.125 30.004 144.251 29.233 144.38 C21.179 145.747 13.232 147.316 5.338 149.449 C3 150 3 150 0 150 C0 100.5 0 51 0 0 Z " fill="#5291A7" transform="translate(560,177)"/>
<path d="M0 0 C11.267 2.253 11.267 2.253 15.684 3.656 C16.63 3.957 17.577 4.257 18.553 4.566 C19.505 4.874 20.457 5.183 21.438 5.5 C22.417 5.808 23.396 6.116 24.404 6.434 C31.614 8.743 31.614 8.743 35 11 C35.369 13.464 35.369 13.464 35.361 16.631 C35.367 18.428 35.367 18.428 35.373 20.26 C35.363 21.594 35.352 22.928 35.341 24.262 C35.34 25.661 35.34 27.061 35.342 28.46 C35.343 32.266 35.325 36.071 35.304 39.877 C35.285 43.851 35.284 47.826 35.28 51.8 C35.271 59.33 35.246 66.859 35.216 74.388 C35.183 82.959 35.166 91.53 35.151 100.1 C35.12 117.734 35.065 135.367 35 153 C49.85 153 64.7 153 80 153 C77.152 157.985 74.588 161.93 70.875 166.125 C66.689 170.962 62.71 175.891 58.839 180.985 C55.641 185.186 52.369 189.322 49.062 193.438 C41.648 202.672 34.312 211.962 27.125 221.375 C23.404 226.244 19.57 231.009 15.688 235.75 C10.507 242.077 5.497 248.516 0.553 255.028 C-3.546 260.424 -7.725 265.743 -12 271 C-19.037 267.91 -23.917 261.165 -28.836 255.449 C-31.745 252.157 -34.747 248.956 -37.75 245.75 C-38.352 245.106 -38.953 244.463 -39.573 243.8 C-41.95 241.257 -44.328 238.715 -46.712 236.179 C-48.271 234.52 -49.824 232.854 -51.375 231.188 C-52.27 230.232 -53.164 229.277 -54.086 228.293 C-56 226 -56 226 -56 224 C-56.593 223.755 -57.186 223.51 -57.797 223.258 C-60.367 221.79 -61.545 220.277 -63.25 217.875 C-63.771 217.151 -64.292 216.426 -64.828 215.68 C-65.408 214.848 -65.408 214.848 -66 214 C-64.563 213.973 -63.125 213.954 -61.688 213.938 C-60.487 213.92 -60.487 213.92 -59.262 213.902 C-57 214 -57 214 -54 215 C-51.459 215.32 -48.922 215.608 -46.375 215.875 C-11.395 219.802 -11.395 219.802 -1 225 C-1.33 219.39 -1.66 213.78 -2 208 C-14.053 204.754 -26.057 202.384 -38.438 200.75 C-39.667 200.587 -40.897 200.425 -42.165 200.257 C-56.794 198.41 -71.274 197.794 -86 197.812 C-86.876 197.813 -87.751 197.814 -88.654 197.814 C-126.358 197.884 -164.32 201.45 -201.266 209.082 C-244.34 217.979 -287.736 225.317 -331.812 225.375 C-332.693 225.377 -333.574 225.379 -334.482 225.382 C-364.621 225.373 -364.621 225.373 -375 222 C-376.2 219.599 -376.115 218.106 -376.098 215.43 C-376.094 214.534 -376.091 213.638 -376.088 212.715 C-376.08 211.778 -376.071 210.841 -376.062 209.875 C-376.058 208.93 -376.053 207.985 -376.049 207.012 C-376.037 204.674 -376.021 202.337 -376 200 C-374.855 200.01 -374.855 200.01 -373.687 200.02 C-366.38 200.081 -359.074 200.126 -351.767 200.155 C-348.013 200.171 -344.26 200.192 -340.506 200.226 C-323.59 200.378 -307.111 200.107 -290.361 197.377 C-286.89 196.823 -283.409 196.388 -279.922 195.945 C-256.308 192.774 -233.251 187.999 -210.093 182.496 C-204.316 181.127 -198.532 179.786 -192.75 178.438 C-191.533 178.154 -190.316 177.87 -189.062 177.577 C-186.611 177.005 -184.159 176.434 -181.708 175.863 C-179.207 175.281 -176.706 174.698 -174.206 174.113 C-154.558 169.535 -134.886 165.399 -115 162 C-113.801 161.787 -112.603 161.574 -111.368 161.354 C-93.791 158.307 -76.554 157.634 -58.75 157.625 C-57.192 157.622 -57.192 157.622 -55.602 157.619 C-45.382 157.621 -35.194 157.796 -25.016 158.773 C-24.335 158.834 -23.654 158.894 -22.953 158.956 C-15.027 159.834 -7.899 162.025 0 164 C0 109.88 0 55.76 0 0 Z " fill="#5391A7" transform="translate(713,377)"/>
<path d="M0 0 C0 61.71 0 123.42 0 187 C-6.344 187 -11.014 186.873 -17 186 C-20.324 185.846 -23.645 185.836 -26.973 185.832 C-28.411 185.827 -28.411 185.827 -29.879 185.822 C-31.91 185.817 -33.941 185.815 -35.973 185.815 C-39.001 185.813 -42.029 185.794 -45.057 185.775 C-62.795 185.724 -80.328 187.051 -97.875 189.688 C-98.985 189.854 -100.096 190.021 -101.24 190.192 C-124.135 193.788 -146.657 199.583 -169.152 205.086 C-188.09 209.718 -207.048 213.901 -226.215 217.475 C-231.629 218.496 -237.03 219.588 -242.423 220.715 C-251.306 222.545 -260.183 224.094 -269.188 225.188 C-269.898 225.274 -270.608 225.361 -271.34 225.451 C-286.411 227.221 -301.465 227.351 -316.625 227.312 C-317.77 227.31 -318.914 227.307 -320.094 227.305 C-323.388 227.292 -326.682 227.269 -329.977 227.238 C-331.447 227.227 -331.447 227.227 -332.946 227.215 C-349.004 226.996 -349.004 226.996 -351 225 C-351.098 222.572 -351.13 220.171 -351.12 217.743 C-351.121 216.974 -351.122 216.205 -351.123 215.414 C-351.125 212.819 -351.119 210.224 -351.114 207.629 C-351.113 205.776 -351.113 203.924 -351.114 202.072 C-351.114 197.026 -351.108 191.981 -351.101 186.936 C-351.095 181.669 -351.095 176.403 -351.093 171.137 C-351.09 161.156 -351.082 151.176 -351.072 141.196 C-351.061 129.837 -351.055 118.478 -351.05 107.119 C-351.04 83.746 -351.022 60.373 -351 37 C-350.295 37.004 -349.59 37.007 -348.863 37.011 C-342.115 37.046 -335.367 37.071 -328.619 37.087 C-325.152 37.096 -321.686 37.108 -318.219 37.127 C-296.217 37.247 -274.757 36.291 -253 33 C-251.815 32.823 -250.63 32.647 -249.409 32.465 C-241.936 31.313 -234.521 29.931 -227.111 28.428 C-224.76 27.951 -222.408 27.481 -220.056 27.01 C-199.141 22.813 -178.414 18.265 -157.806 12.744 C-109.845 0.031 -49.033 -14.009 0 0 Z M-109 20 C-110.627 20.224 -110.627 20.224 -112.288 20.453 C-129.76 22.925 -146.893 27.025 -164.053 31.073 C-168.777 32.186 -173.508 33.265 -178.241 34.342 C-180.91 34.979 -183.547 35.688 -186.188 36.438 C-192.411 38.168 -198.706 39.525 -205.016 40.902 C-209.298 41.839 -213.57 42.82 -217.841 43.81 C-222.555 44.897 -227.276 45.955 -232 47 C-233.01 47.224 -234.021 47.447 -235.062 47.678 C-248.989 50.719 -262.689 52.885 -276.923 53.782 C-279.028 54.003 -280.95 54.487 -283 55 C-286.6 55.255 -290.196 55.44 -293.801 55.605 C-297.328 55.785 -300.597 56.063 -304 57 C-304.075 57.606 -304.15 58.212 -304.227 58.836 C-305.736 68.454 -310.008 76.241 -317.57 82.465 C-321.569 84.991 -325.886 86.511 -330.34 88.055 C-332.889 88.746 -332.889 88.746 -334 90 C-334.095 92.678 -334.126 95.33 -334.114 98.008 C-334.114 98.847 -334.114 99.686 -334.114 100.55 C-334.113 103.337 -334.105 106.124 -334.098 108.91 C-334.096 110.837 -334.094 112.764 -334.093 114.69 C-334.09 119.772 -334.08 124.853 -334.069 129.935 C-334.058 135.116 -334.054 140.297 -334.049 145.479 C-334.038 155.652 -334.021 165.826 -334 176 C-333.244 176.268 -332.488 176.535 -331.709 176.811 C-330.717 177.166 -329.726 177.52 -328.704 177.886 C-327.721 178.236 -326.738 178.586 -325.726 178.947 C-317.156 182.258 -309.837 188.612 -306 197 C-304.921 200.312 -303.941 203.647 -303 207 C-276.092 207.41 -249.332 206.472 -223.153 199.787 C-217.898 198.475 -212.604 197.342 -207.312 196.188 C-198.818 194.313 -190.333 192.407 -181.875 190.375 C-180.919 190.145 -179.963 189.916 -178.977 189.679 C-172.436 188.098 -165.905 186.48 -159.376 184.85 C-155.052 183.772 -150.727 182.699 -146.402 181.628 C-144.249 181.092 -142.097 180.554 -139.946 180.012 C-128.734 177.19 -117.606 174.527 -106.143 172.946 C-101.615 172.317 -97.394 171.308 -93 170 C-90.24 169.583 -87.522 169.223 -84.75 168.938 C-83.594 168.813 -83.594 168.813 -82.415 168.686 C-75.803 168.008 -69.186 167.615 -62.546 167.342 C-57.648 167.133 -52.858 166.667 -48 166 C-47.876 165.25 -47.753 164.5 -47.625 163.727 C-45.614 153.749 -41.092 147.122 -33.25 140.688 C-29 138 -29 138 -17 133 C-17 104.95 -17 76.9 -17 48 C-20.3 47.01 -23.6 46.02 -27 45 C-39.457 38.343 -44.754 28.98 -49 16 C-69.344 15.301 -88.899 17.182 -109 20 Z " fill="#5391A7" transform="translate(697,334)"/>
<path d="M0 0 C0.33 0 0.66 0 1 0 C1.619 27.161 -3.463 53.293 -12.306 78.978 C-12.96 80.882 -13.584 82.796 -14.207 84.711 C-17.066 93.221 -20.845 101.041 -24.969 108.985 C-25.966 110.933 -26.925 112.895 -27.871 114.867 C-35.407 130.511 -44.215 145.376 -55 159 C-55.823 160.085 -56.643 161.172 -57.461 162.262 C-65.783 173.288 -75.052 183.238 -84.811 192.996 C-86.437 194.625 -88.056 196.261 -89.674 197.898 C-95.802 204.06 -102.071 209.73 -109 215 C-110.099 215.87 -111.197 216.743 -112.293 217.617 C-133.129 233.87 -156.178 248.084 -180.438 258.562 C-181.48 259.018 -182.522 259.474 -183.596 259.943 C-186.726 261.307 -189.861 262.656 -193 264 C-193.977 264.422 -194.954 264.844 -195.961 265.279 C-203.569 268.518 -211.286 271.313 -219.125 273.938 C-219.767 274.153 -220.409 274.368 -221.07 274.59 C-234.183 278.962 -247.461 282.214 -261 285 C-261.807 285.179 -262.614 285.358 -263.446 285.543 C-270.698 287.108 -277.998 287.841 -285.375 288.562 C-286.612 288.688 -287.85 288.814 -289.125 288.943 C-291.595 289.192 -294.067 289.434 -296.538 289.669 C-298.63 289.869 -300.722 290.078 -302.811 290.303 C-313.197 291.336 -323.636 291.244 -334.062 291.25 C-335.087 291.251 -336.112 291.251 -337.168 291.252 C-353.323 291.235 -369.022 290.551 -385 288 C-386.108 287.834 -387.216 287.667 -388.357 287.496 C-450.182 278.102 -509.322 252.297 -558 213 C-558.563 212.552 -559.127 212.104 -559.708 211.643 C-568.268 204.801 -576.048 197.154 -583.812 189.438 C-584.301 188.954 -584.789 188.471 -585.293 187.974 C-591.991 181.331 -598.141 174.396 -604 167 C-605.311 165.395 -606.623 163.79 -607.938 162.188 C-612.895 155.989 -617.436 149.49 -622 143 C-620.508 139.22 -618.414 137.506 -615.125 135.188 C-614.261 134.562 -613.398 133.937 -612.508 133.293 C-610 132 -610 132 -608.016 132.253 C-604.606 133.516 -602.538 136.396 -600.188 139.062 C-599.65 139.658 -599.112 140.254 -598.558 140.867 C-595.87 143.854 -593.234 146.881 -590.625 149.938 C-582.775 158.975 -574.14 167.403 -564.742 174.812 C-562.308 176.754 -559.963 178.77 -557.625 180.825 C-543.395 193.233 -527.343 203.609 -511 213 C-510.06 213.541 -509.12 214.082 -508.151 214.64 C-426.988 260.89 -329.412 273.186 -239.267 248.634 C-238.519 248.425 -237.771 248.216 -237 248 C-236.247 247.789 -235.494 247.579 -234.718 247.362 C-203.829 238.522 -173.102 225.353 -146 208 C-145.284 207.544 -144.568 207.089 -143.83 206.62 C-127.249 196.005 -111.67 184.126 -97 171 C-96.4 170.463 -95.8 169.926 -95.181 169.373 C-80.464 156.111 -67.167 141.979 -55.455 125.986 C-54.113 124.154 -52.754 122.336 -51.391 120.52 C-44.184 110.806 -38.007 100.487 -32 90 C-31.294 88.781 -31.294 88.781 -30.573 87.537 C-18.264 66.063 -10.279 42.556 -4.601 18.532 C-3.823 15.255 -2.998 11.991 -2.172 8.726 C-1.437 5.82 -0.718 2.91 0 0 Z " fill="#5291A7" transform="translate(854,492)"/>
<path d="M0 0 C10.437 10.103 15.115 20.68 15.364 35.14 C15.433 54.664 9.768 69.685 -2 85.125 C-2.541 85.852 -3.083 86.579 -3.641 87.328 C-17.246 104.231 -41.509 116.665 -63 119.125 C-83.459 120.238 -99.658 117.658 -115.781 104.188 C-123.776 96.756 -130.317 85.597 -131.205 74.588 C-131.305 71.681 -131.322 68.784 -131.312 65.875 C-131.329 64.902 -131.345 63.929 -131.361 62.926 C-131.374 43.502 -121.275 26.704 -108.188 12.938 C-79.641 -14.309 -32.916 -27.551 0 0 Z " fill="#5391A7" transform="translate(567,394.875)"/>
<path d="M0 0 C4.023 1.57 6.452 4.409 9.25 7.562 C10.315 8.74 11.382 9.918 12.449 11.094 C13.305 12.039 13.305 12.039 14.177 13.004 C17.429 16.564 20.75 20.059 24.062 23.562 C30.437 30.32 36.743 37.134 43 44 C44.812 45.98 46.624 47.959 48.438 49.938 C48.889 50.43 49.341 50.923 49.806 51.431 C52.693 54.58 55.586 57.722 58.485 60.86 C59.49 61.948 60.494 63.036 61.497 64.125 C64.033 66.875 66.576 69.617 69.133 72.348 C70.13 73.419 71.128 74.491 72.125 75.562 C73.014 76.513 73.904 77.463 74.82 78.441 C76.667 80.609 77.909 82.395 79 85 C76.131 85.956 74.295 86.137 71.314 86.161 C70.361 86.171 69.407 86.18 68.424 86.19 C66.869 86.197 66.869 86.197 65.281 86.203 C64.195 86.209 63.109 86.215 61.991 86.22 C59.674 86.23 57.357 86.236 55.04 86.24 C51.597 86.25 48.154 86.281 44.711 86.312 C42.443 86.319 40.174 86.324 37.906 86.328 C36.423 86.347 36.423 86.347 34.91 86.366 C22.074 86.328 9.955 84.439 -3 83 C-3 152.3 -3 221.6 -3 293 C-13.135 293 -13.135 293 -18.312 292.16 C-19.407 291.984 -20.501 291.808 -21.629 291.627 C-22.741 291.441 -23.854 291.254 -25 291.062 C-26.143 290.88 -27.287 290.698 -28.465 290.51 C-36.863 289.137 -36.863 289.137 -38 288 C-38.098 285.445 -38.13 282.918 -38.12 280.363 C-38.121 279.554 -38.122 278.744 -38.123 277.91 C-38.125 275.177 -38.119 272.444 -38.114 269.711 C-38.113 267.76 -38.113 265.809 -38.114 263.858 C-38.114 258.544 -38.108 253.23 -38.101 247.917 C-38.095 242.37 -38.095 236.823 -38.093 231.277 C-38.09 220.765 -38.082 210.254 -38.072 199.742 C-38.061 187.779 -38.055 175.815 -38.05 163.852 C-38.04 139.234 -38.022 114.617 -38 90 C-50.54 90 -63.08 90 -76 90 C-72.222 84.963 -68.491 80.105 -64.375 75.375 C-63.324 74.158 -62.273 72.94 -61.223 71.723 C-60.69 71.108 -60.158 70.493 -59.61 69.86 C-57.004 66.85 -54.407 63.833 -51.812 60.812 C-51.312 60.231 -50.812 59.649 -50.297 59.049 C-47.249 55.491 -44.262 51.891 -41.312 48.25 C-38.465 44.741 -35.542 41.341 -32.5 38 C-28.64 33.759 -24.997 29.38 -21.387 24.926 C-14.465 16.44 -7.334 8.132 0 0 Z " fill="#B6DBE3" transform="translate(334,270)"/>
<path d="M0 0 C1.602 0.315 3.204 0.631 4.806 0.948 C6.144 1.211 6.144 1.211 7.509 1.481 C10.29 2.06 12.977 2.796 15.684 3.656 C16.63 3.957 17.577 4.257 18.553 4.566 C19.505 4.874 20.457 5.183 21.438 5.5 C22.417 5.808 23.396 6.116 24.404 6.434 C31.614 8.743 31.614 8.743 35 11 C35.369 13.464 35.369 13.464 35.361 16.631 C35.365 17.829 35.369 19.026 35.373 20.26 C35.363 21.594 35.352 22.928 35.341 24.262 C35.34 25.661 35.34 27.061 35.342 28.46 C35.343 32.266 35.325 36.071 35.304 39.877 C35.285 43.851 35.284 47.826 35.28 51.8 C35.271 59.33 35.246 66.859 35.216 74.388 C35.183 82.959 35.166 91.53 35.151 100.1 C35.12 117.734 35.065 135.367 35 153 C49.85 153 64.7 153 80 153 C77.152 157.985 74.588 161.93 70.875 166.125 C66.689 170.962 62.71 175.891 58.839 180.985 C55.641 185.186 52.369 189.322 49.062 193.438 C41.648 202.672 34.312 211.962 27.125 221.375 C23.404 226.244 19.57 231.009 15.688 235.75 C10.507 242.077 5.497 248.516 0.553 255.028 C-3.546 260.424 -7.725 265.743 -12 271 C-19.037 267.91 -23.917 261.165 -28.836 255.449 C-31.745 252.157 -34.747 248.956 -37.75 245.75 C-38.352 245.106 -38.953 244.463 -39.573 243.8 C-41.95 241.257 -44.328 238.715 -46.712 236.179 C-48.271 234.52 -49.824 232.854 -51.375 231.188 C-52.27 230.232 -53.164 229.277 -54.086 228.293 C-56 226 -56 226 -56 224 C-56.593 223.755 -57.186 223.51 -57.797 223.258 C-60.367 221.79 -61.545 220.277 -63.25 217.875 C-64.031 216.788 -64.031 216.788 -64.828 215.68 C-65.408 214.848 -65.408 214.848 -66 214 C-64.563 213.973 -63.125 213.954 -61.688 213.938 C-60.487 213.92 -60.487 213.92 -59.262 213.902 C-57 214 -57 214 -54 215 C-51.459 215.32 -48.922 215.608 -46.375 215.875 C-11.395 219.802 -11.395 219.802 -1 225 C-1.001 224.426 -1.002 223.853 -1.003 223.262 C-1.087 177.694 -0.853 132.13 -0.555 86.564 C-0.493 77.09 -0.433 67.616 -0.373 58.142 C-0.251 38.761 -0.127 19.381 0 0 Z " fill="#2B6A80" transform="translate(713,377)"/>
<path d="M0 0 C0 3.63 0 7.26 0 11 C1.588 10.918 3.176 10.835 4.812 10.75 C10.904 10.75 16.714 11.84 22 15 C23.02 16.812 23.02 16.812 23 19 C21.566 21.578 21.566 21.578 19.562 24.25 C18.904 25.142 18.245 26.034 17.566 26.953 C17.049 27.629 16.533 28.304 16 29 C14.866 28.691 13.731 28.381 12.562 28.062 C8.06 26.927 3.62 26.433 -1 26 C-1 31.28 -1 36.56 -1 42 C0.485 42.248 1.97 42.495 3.5 42.75 C12.066 44.504 18.046 47.611 23 55 C24.949 60.848 24.245 66.338 22 72 C17.194 80.216 10.518 84.878 1.516 87.809 C-0.306 88.277 -2.152 88.651 -4 89 C-4 92.63 -4 96.26 -4 100 C-8.308 101.351 -11.42 102 -16 102 C-16 98.37 -16 94.74 -16 91 C-17.629 91.041 -19.259 91.082 -20.938 91.125 C-29.47 91.103 -35.803 89.594 -43 85 C-41.509 81.717 -39.614 79.069 -37.375 76.25 C-36.743 75.451 -36.112 74.652 -35.461 73.828 C-34.979 73.225 -34.497 72.622 -34 72 C-32.082 72.464 -32.082 72.464 -30.125 72.938 C-25.099 74.064 -20.13 74.566 -15 75 C-15 69.39 -15 63.78 -15 58 C-16.299 57.752 -17.599 57.505 -18.938 57.25 C-25.14 55.868 -31.748 53.971 -36 49 C-38.65 43.003 -38.894 37.113 -36.875 30.938 C-33.312 22.742 -28.653 19.71 -20.688 16.188 C-15.157 13.887 -15.157 13.887 -11.738 9.27 C-11.518 6.713 -11.545 4.521 -12 2 C-10.188 1.666 -8.375 1.333 -6.562 1 C-5.553 0.814 -4.544 0.629 -3.504 0.438 C-1 0 -1 0 0 0 Z " fill="#F8FCFC" transform="translate(518,395)"/>
<path d="M0 0 C2.93 3.541 4.731 7.269 6.312 11.562 C6.659 12.471 7.006 13.38 7.363 14.316 C8.084 17.353 7.995 19.053 7 22 C5.871 23.758 5.871 23.758 4 25 C0.973 25.555 0.973 25.555 -2.938 25.875 C-11.31 26.673 -19.539 28.064 -27.812 29.562 C-29.664 29.896 -29.664 29.896 -31.552 30.236 C-37.262 31.186 -37.262 31.186 -42.87 32.57 C-46.183 33.239 -49.62 33 -53 33 C-52.34 24.75 -51.68 16.5 -51 8 C-37.456 2.921 -14.511 -4.113 0 0 Z " fill="#5392A7" transform="translate(649,416)"/>
<path d="M0 0 C0.363 4.312 0.714 8.625 1.062 12.938 C1.166 14.169 1.27 15.401 1.377 16.67 C1.47 17.84 1.564 19.01 1.66 20.215 C1.794 21.841 1.794 21.841 1.93 23.5 C1.953 24.325 1.976 25.15 2 26 C-1.03 29.03 -9.238 28.074 -13.25 28.098 C-15.5 28.091 -17.75 28.079 -20 28.062 C-21.156 28.058 -22.313 28.053 -23.504 28.049 C-26.336 28.037 -29.168 28.021 -32 28 C-34.272 23.966 -34.106 20.634 -33.75 16.125 C-33.71 15.43 -33.67 14.735 -33.629 14.02 C-33.33 9.73 -32.534 6.012 -31 2 C-29.782 1.939 -28.564 1.879 -27.309 1.816 C-25.685 1.732 -24.061 1.647 -22.438 1.562 C-21.238 1.504 -21.238 1.504 -20.014 1.443 C-16.395 1.251 -12.876 0.982 -9.285 0.465 C-6.134 0.019 -3.177 -0.033 0 0 Z " fill="#5492A7" transform="translate(421,459)"/>
<path d="M0 0 C11 1 11 1 14 3 C10.04 2.67 6.08 2.34 2 2 C2 49.85 2 97.7 2 147 C12.395 145.02 12.395 145.02 23 143 C23.99 143 24.98 143 26 143 C26 143.66 26 144.32 26 145 C22.23 145.838 18.459 146.67 14.688 147.5 C13.616 147.738 12.544 147.977 11.439 148.223 C9.897 148.561 9.897 148.561 8.324 148.906 C7.376 149.116 6.428 149.325 5.452 149.541 C3 150 3 150 0 150 C0 100.5 0 51 0 0 Z " fill="#78A4AF" transform="translate(560,177)"/>
<path d="M0 0 C0.33 0 0.66 0 1 0 C1 61.71 1 123.42 1 187 C-0.32 186.67 -1.64 186.34 -3 186 C-2.34 185.67 -1.68 185.34 -1 185 C-1.001 183.588 -1.001 183.588 -1.003 182.148 C-1.025 159.273 -1.041 136.398 -1.052 113.523 C-1.057 102.461 -1.064 91.399 -1.075 80.337 C-1.085 70.698 -1.092 61.06 -1.094 51.421 C-1.095 46.315 -1.098 41.209 -1.106 36.102 C-1.112 31.301 -1.115 26.499 -1.113 21.698 C-1.113 19.931 -1.115 18.165 -1.119 16.398 C-1.124 13.995 -1.123 11.591 -1.12 9.188 C-1.123 8.482 -1.126 7.775 -1.129 7.048 C-1.114 2.228 -1.114 2.228 0 0 Z " fill="#5F8F9E" transform="translate(696,334)"/>
<path d="M0 0 C1.593 3.187 -0.067 6.034 -1.125 9.25 C-1.357 9.968 -1.59 10.686 -1.829 11.426 C-2.544 13.62 -3.272 15.81 -4 18 C-4.385 19.191 -4.771 20.382 -5.168 21.609 C-8.052 30.152 -11.827 38.006 -15.969 45.985 C-16.966 47.933 -17.925 49.895 -18.871 51.867 C-26.411 67.519 -35.234 82.354 -46 96 C-46.894 97.202 -47.785 98.406 -48.672 99.613 C-49.573 100.826 -50.474 102.038 -51.375 103.25 C-51.792 103.824 -52.209 104.398 -52.639 104.99 C-53.689 106.383 -54.838 107.699 -56 109 C-56.99 109 -57.98 109 -59 109 C-58.488 108.345 -58.488 108.345 -57.965 107.677 C-35.526 78.905 -16.984 47.679 -5.621 12.836 C-2.113 2.113 -2.113 2.113 0 0 Z " fill="#6494A2" transform="translate(845,555)"/>
<path d="M0 0 C3.63 0 7.26 0 11 0 C11 0.33 11 0.66 11 1 C8.949 1.228 6.898 1.456 4.848 1.684 C2.989 1.819 2.989 1.819 2 3 C1.89 5.39 1.845 7.752 1.842 10.144 C1.837 10.9 1.832 11.656 1.827 12.435 C1.811 14.989 1.803 17.542 1.795 20.096 C1.785 21.919 1.775 23.742 1.765 25.564 C1.738 30.529 1.717 35.494 1.697 40.458 C1.675 45.641 1.647 50.823 1.621 56.005 C1.571 65.826 1.526 75.647 1.483 85.468 C1.433 96.645 1.378 107.823 1.323 119 C1.209 142 1.102 165 1 188 C0.67 188 0.34 188 0 188 C0 125.96 0 63.92 0 0 Z " fill="#80ACB9" transform="translate(346,371)"/>
<path d="M0 0 C1.32 0.66 2.64 1.32 4 2 C2.02 4.31 0.04 6.62 -2 9 C-2 6 -2 6 0 4 C0 2.68 0 1.36 0 0 Z M-5 9 C-4.34 9.33 -3.68 9.66 -3 10 C-8.28 15.28 -13.56 20.56 -19 26 C-19 22.26 -18.066 21.547 -15.625 18.812 C-14.685 17.739 -14.685 17.739 -13.727 16.645 C-12 15 -12 15 -10 15 C-10 14.34 -10 13.68 -10 13 C-9.34 13 -8.68 13 -8 13 C-8 12.34 -8 11.68 -8 11 C-7.01 10.34 -6.02 9.68 -5 9 Z M-24 28 C-23.34 28.33 -22.68 28.66 -22 29 C-23.32 29.99 -24.64 30.98 -26 32 C-25.34 30.68 -24.68 29.36 -24 28 Z M-31 35 C-30.34 35.33 -29.68 35.66 -29 36 C-34.28 41.28 -39.56 46.56 -45 52 C-45.66 51.34 -46.32 50.68 -47 50 C-46.34 50 -45.68 50 -45 50 C-44.794 49.443 -44.587 48.886 -44.375 48.312 C-42.832 45.718 -40.944 44.161 -38.594 42.301 C-36.226 40.368 -34.128 38.189 -32 36 C-31.67 35.67 -31.34 35.34 -31 35 Z M-48 52 C-47.01 52.495 -47.01 52.495 -46 53 C-46.99 53.495 -46.99 53.495 -48 54 C-48 53.34 -48 52.68 -48 52 Z M-50 54 C-49.34 54.33 -48.68 54.66 -48 55 C-49.32 55.99 -50.64 56.98 -52 58 C-52.33 57.34 -52.66 56.68 -53 56 C-52.01 55.34 -51.02 54.68 -50 54 Z " fill="#5D8E9D" transform="translate(787,296)"/>
<path d="M0 0 C1.095 -0.006 2.189 -0.013 3.317 -0.019 C5.104 -0.021 5.104 -0.021 6.928 -0.023 C8.143 -0.026 9.357 -0.029 10.609 -0.033 C13.184 -0.038 15.759 -0.04 18.333 -0.04 C22.286 -0.042 26.239 -0.06 30.192 -0.079 C32.687 -0.082 35.183 -0.084 37.678 -0.085 C38.868 -0.092 40.057 -0.1 41.283 -0.107 C42.381 -0.104 43.478 -0.101 44.609 -0.098 C45.579 -0.099 46.549 -0.101 47.548 -0.102 C49.869 0.145 49.869 0.145 51.869 2.145 C48.891 3.138 46.913 3.277 43.803 3.291 C42.772 3.297 41.741 3.303 40.678 3.31 C39.566 3.311 38.453 3.312 37.307 3.313 C35.593 3.318 35.593 3.318 33.844 3.323 C31.426 3.328 29.009 3.331 26.591 3.331 C22.884 3.333 19.178 3.351 15.471 3.37 C13.125 3.373 10.778 3.375 8.432 3.376 C7.319 3.383 6.207 3.39 5.061 3.398 C4.029 3.394 2.998 3.391 1.936 3.388 C0.574 3.39 0.574 3.39 -0.816 3.393 C-3.131 3.145 -3.131 3.145 -6.131 1.145 C-4.44 -0.545 -2.315 0.009 0 0 Z " fill="#6695A3" transform="translate(359.130615234375,557.854736328125)"/>
<path d="M0 0 C4.375 0.523 6.614 1.97 9.938 4.812 C10.885 5.617 11.832 6.421 12.809 7.25 C13.318 7.69 13.827 8.129 14.351 8.582 C16.129 10.111 17.925 11.619 19.723 13.125 C20.982 14.187 22.241 15.249 23.5 16.312 C24.099 16.816 24.699 17.319 25.316 17.837 C28.268 20.356 30.832 22.74 33 26 C29.318 24.735 27.158 23.446 24.562 20.562 C20.914 16.761 17.018 13.488 12.875 10.25 C12.289 9.791 11.703 9.331 11.1 8.858 C8.32 6.704 5.518 4.653 2.57 2.734 C1.722 2.162 0.874 1.59 0 1 C0 0.67 0 0.34 0 0 Z M33 26 C34.98 27.65 36.96 29.3 39 31 C36 31 36 31 34.312 29.625 C33 28 33 28 33 26 Z M39 32 C40.132 32.908 41.255 33.827 42.375 34.75 C43.001 35.26 43.628 35.771 44.273 36.297 C46.083 38.082 47.001 39.679 48 42 C43.711 40.411 41.677 37.569 39 34 C39 33.34 39 32.68 39 32 Z " fill="#6594A2" transform="translate(731,244)"/>
<path d="M0 0 C1.115 0.003 2.23 0.006 3.379 0.01 C4.538 0.018 5.697 0.027 6.891 0.035 C8.065 0.04 9.239 0.044 10.449 0.049 C13.346 0.061 16.243 0.077 19.141 0.098 C15.735 2.134 12.896 2.443 8.961 2.66 C7.731 2.734 6.502 2.807 5.235 2.883 C3.27 2.989 3.27 2.989 1.266 3.098 C-1.443 3.257 -4.151 3.423 -6.859 3.59 C-7.536 3.631 -8.212 3.672 -8.908 3.714 C-15.195 4.101 -21.464 4.633 -27.734 5.223 C-28.666 5.31 -29.598 5.398 -30.558 5.488 C-32.659 5.688 -34.759 5.892 -36.859 6.098 C-29.953 1.494 -21.265 1.746 -13.215 1.344 C-10.082 1.224 -10.082 1.224 -8.016 0.588 C-5.298 -0.03 -2.787 -0.014 0 0 Z " fill="#72A0AD" transform="translate(590.859375,572.90234375)"/>
<path d="M0 0 C0.33 0 0.66 0 1 0 C1.27 11.834 0.537 23.265 -1 35 C-1.66 35 -2.32 35 -3 35 C-3 31.37 -3 27.74 -3 24 C-3.66 24 -4.32 24 -5 24 C-4.395 18.344 -3.378 12.998 -1.938 7.5 C-1.751 6.773 -1.565 6.046 -1.373 5.297 C-0.92 3.53 -0.46 1.765 0 0 Z M-3 20 C-2 23 -2 23 -2 23 Z " fill="#6494A3" transform="translate(854,492)"/>
<path d="M0 0 C3.458 -0.058 6.916 -0.094 10.375 -0.125 C11.36 -0.142 12.345 -0.159 13.359 -0.176 C14.771 -0.185 14.771 -0.185 16.211 -0.195 C17.515 -0.211 17.515 -0.211 18.845 -0.227 C21 0 21 0 23 2 C16.07 2 9.14 2 2 2 C2.144 4.558 2.289 7.115 2.438 9.75 C2.481 10.549 2.524 11.348 2.568 12.171 C2.771 15.568 3.104 18.721 4 22 C3.01 22 2.02 22 1 22 C-0.2 19.599 -0.115 18.106 -0.098 15.43 C-0.094 14.534 -0.091 13.638 -0.088 12.715 C-0.08 11.778 -0.071 10.841 -0.062 9.875 C-0.058 8.93 -0.053 7.985 -0.049 7.012 C-0.037 4.674 -0.021 2.337 0 0 Z " fill="#74A1AD" transform="translate(337,577)"/>
<path d="M0 0 C15.857 -0.341 31.492 0.441 47 4 C46.34 4.66 45.68 5.32 45 6 C42.113 5.828 42.113 5.828 38.312 5.25 C31.182 4.236 24.051 3.493 16.875 2.875 C15.892 2.788 14.909 2.7 13.896 2.61 C9.249 2.213 4.669 1.89 0 2 C0 1.34 0 0.68 0 0 Z " fill="#6392A1" transform="translate(660,535)"/>
<path d="M0 0 C3.63 0 7.26 0 11 0 C11 0.33 11 0.66 11 1 C8.949 1.228 6.898 1.456 4.848 1.684 C2.989 1.819 2.989 1.819 2 3 C1.876 5.147 1.822 7.297 1.795 9.448 C1.785 10.121 1.775 10.794 1.765 11.487 C1.733 13.722 1.708 15.957 1.684 18.191 C1.663 19.737 1.642 21.283 1.621 22.828 C1.565 26.904 1.516 30.979 1.468 35.054 C1.418 39.21 1.362 43.366 1.307 47.521 C1.199 55.681 1.098 63.84 1 72 C0.67 72 0.34 72 0 72 C0 48.24 0 24.48 0 0 Z " fill="#7BA8B5" transform="translate(346,371)"/>
<path d="M0 0 C1.594 3.187 -0.068 6.033 -1.125 9.25 C-1.351 9.956 -1.578 10.663 -1.811 11.391 C-4.053 18.315 -6.491 25.168 -9 32 C-10.438 29.706 -11.091 28.538 -10.632 25.821 C-10.347 25.049 -10.063 24.276 -9.77 23.48 C-9.461 22.623 -9.152 21.765 -8.834 20.881 C-8.497 19.992 -8.16 19.103 -7.812 18.188 C-7.495 17.31 -7.177 16.433 -6.85 15.529 C-1.844 1.844 -1.844 1.844 0 0 Z " fill="#6998A6" transform="translate(845,555)"/>
<path d="M0 0 C4.75 0.75 4.75 0.75 7 3 C6.938 5.375 6.938 5.375 6 8 C1.784 12 1.784 12 -1 12 C-1.143 3.429 -1.143 3.429 0 0 Z " fill="#5A91A3" transform="translate(516,456)"/>
<path d="M0 0 C0.99 0 1.98 0 3 0 C4.605 1.75 4.605 1.75 6.188 4 C6.717 4.742 7.247 5.485 7.793 6.25 C8.191 6.827 8.59 7.405 9 8 C8.67 8.66 8.34 9.32 8 10 C6.664 8.524 5.331 7.044 4 5.562 C3.257 4.739 2.515 3.915 1.75 3.066 C0 1 0 1 0 0 Z M9 10 C13.211 11.634 15.985 14.762 19.062 17.938 C19.592 18.476 20.121 19.014 20.666 19.568 C22.114 21.042 23.557 22.521 25 24 C25.999 25.001 26.998 26.002 28 27 C24.468 26.42 22.818 25.185 20.328 22.656 C19.332 21.653 19.332 21.653 18.316 20.629 C17.634 19.926 16.953 19.224 16.25 18.5 C15.553 17.797 14.855 17.095 14.137 16.371 C9 11.154 9 11.154 9 10 Z " fill="#5D8E9D" transform="translate(255,664)"/>
<path d="M0 0 C0.66 0 1.32 0 2 0 C2 5.61 2 11.22 2 17 C-8.571 17.286 -8.571 17.286 -14 15 C-13.67 14.34 -13.34 13.68 -13 13 C-12.505 13.165 -12.01 13.33 -11.5 13.5 C-7.966 14.207 -4.603 14.06 -1 14 C-0.348 9.276 0.12 4.78 0 0 Z " fill="#6393A1" transform="translate(501,453)"/>
<path d="M0 0 C0.33 0.99 0.66 1.98 1 3 C-6.527 9.52 -14.034 16.015 -22 22 C-22.66 21.67 -23.32 21.34 -24 21 C-17.94 15.44 -11.761 10.094 -5.348 4.945 C-3.448 3.371 -1.699 1.783 0 0 Z " fill="#6998A6" transform="translate(757,693)"/>
<path d="M0 0 C0.66 0 1.32 0 2 0 C2 8.91 2 17.82 2 27 C0.68 26.67 -0.64 26.34 -2 26 C-1.34 25.67 -0.68 25.34 0 25 C0 16.75 0 8.5 0 0 Z " fill="#5D8E9D" transform="translate(695,494)"/>
<path d="M0 0 C0.66 0.33 1.32 0.66 2 1 C-1.062 2.938 -4.125 4.876 -7.188 6.812 C-8.484 7.633 -8.484 7.633 -9.807 8.471 C-12.202 9.985 -14.6 11.493 -17 13 C-17.986 13.623 -18.972 14.245 -19.988 14.887 C-22 16 -22 16 -24 16 C-24 15.34 -24 14.68 -24 14 C-21.988 12.598 -21.988 12.598 -19.312 11.062 C-18.442 10.558 -17.572 10.054 -16.676 9.535 C-15.793 9.029 -14.91 8.522 -14 8 C-12.332 7.002 -10.665 6.002 -9 5 C-7.444 4.073 -5.881 3.156 -4.312 2.25 C-3.546 1.801 -2.779 1.353 -1.988 0.891 C-1.332 0.597 -0.676 0.303 0 0 Z " fill="#6594A2" transform="translate(721,722)"/>
<path d="M0 0 C0 3.96 0 7.92 0 12 C-5 9 -5 9 -6.062 6.562 C-6 4 -6 4 -4.188 1.688 C-2 0 -2 0 0 0 Z " fill="#6494A3" transform="translate(505,424)"/>
<path d="M0 0 C2.902 0.321 5.646 0.748 8.5 1.312 C9.285 1.456 10.07 1.6 10.879 1.748 C16.672 2.836 16.672 2.836 19 4 C19 4.66 19 5.32 19 6 C11.941 4.877 4.962 3.624 -2 2 C-1.34 1.34 -0.68 0.68 0 0 Z " fill="#6E9CA9" transform="translate(692,578)"/>
<path d="M0 0 C8.155 0.447 16.043 1.112 24 3 C23.34 3.66 22.68 4.32 22 5 C19.233 4.819 16.608 4.536 13.875 4.125 C13.121 4.021 12.367 3.916 11.59 3.809 C9.725 3.549 7.862 3.276 6 3 C6 2.34 6 1.68 6 1 C4.02 1 2.04 1 0 1 C0 0.67 0 0.34 0 0 Z " fill="#79A6B2" transform="translate(683,536)"/>
<path d="M0 0 C0.66 0.33 1.32 0.66 2 1 C-1.524 4.11 -4.506 5.672 -9 7 C-10.497 8.497 -10.332 9.988 -10.562 12.062 C-10.707 13.362 -10.851 14.661 -11 16 C-11.33 16 -11.66 16 -12 16 C-12 12.37 -12 8.74 -12 5 C-10.046 4.136 -8.086 3.284 -6.125 2.438 C-5.034 1.962 -3.944 1.486 -2.82 0.996 C-1.89 0.667 -0.959 0.339 0 0 Z M-14 16 C-12 17 -12 17 -12 17 Z " fill="#7DA8B4" transform="translate(526,479)"/>
<path d="M0 0 C1.123 0.071 1.123 0.071 2.269 0.143 C3.078 0.191 3.887 0.24 4.72 0.289 C5.996 0.373 5.996 0.373 7.297 0.459 C8.578 0.538 8.578 0.538 9.885 0.617 C12.001 0.748 14.118 0.884 16.234 1.022 C16.234 1.682 16.234 2.342 16.234 3.022 C13.63 3.076 11.026 3.115 8.422 3.147 C7.684 3.163 6.946 3.18 6.185 3.198 C2.322 3.232 0.525 3.216 -2.766 1.022 C-1.766 0.022 -1.766 0.022 0 0 Z " fill="#6F9DAB" transform="translate(355.765869140625,557.978271484375)"/>
<path d="M0 0 C0 3.907 -1.279 4.907 -3.75 7.875 C-4.446 8.718 -5.142 9.561 -5.859 10.43 C-6.919 11.702 -6.919 11.702 -8 13 C-9.337 14.664 -10.671 16.33 -12 18 C-12.66 17.67 -13.32 17.34 -14 17 C-12.42 14.914 -10.836 12.831 -9.25 10.75 C-8.807 10.163 -8.363 9.577 -7.906 8.973 C-5.449 5.756 -2.953 2.788 0 0 Z " fill="#6897A5" transform="translate(800,647)"/>
<path d="M0 0 C-9.405 1.98 -9.405 1.98 -19 4 C-18.67 3.01 -18.34 2.02 -18 1 C-14.98 -0.02 -14.98 -0.02 -11.188 -0.812 C-9.322 -1.224 -9.322 -1.224 -7.418 -1.645 C-4 -2 -4 -2 0 0 Z " fill="#6A99A6" transform="translate(558,532)"/>
<path d="M0 0 C-0.33 0.66 -0.66 1.32 -1 2 C-3.984 2.633 -3.984 2.633 -7.75 3.125 C-8.982 3.293 -10.215 3.46 -11.484 3.633 C-14.365 3.934 -17.109 4.077 -20 4 C-15.082 -0.918 -6.504 -0.206 0 0 Z " fill="#6A99A7" transform="translate(500,587)"/>
<path d="M0 0 C1.98 1.65 3.96 3.3 6 5 C3 5 3 5 1.312 3.625 C0 2 0 2 0 0 Z M6 6 C7.132 6.908 8.255 7.827 9.375 8.75 C10.001 9.26 10.628 9.771 11.273 10.297 C13.083 12.082 14.001 13.679 15 16 C10.711 14.411 8.677 11.569 6 8 C6 7.34 6 6.68 6 6 Z " fill="#5D8E9D" transform="translate(764,270)"/>
<path d="M0 0 C-2.622 0.863 -5.247 1.716 -7.875 2.562 C-8.621 2.809 -9.368 3.056 -10.137 3.311 C-15.773 5.113 -15.773 5.113 -18 4 C-15.406 1.406 -13.051 0.855 -9.562 -0.25 C-8.409 -0.626 -7.255 -1.003 -6.066 -1.391 C-3 -2 -3 -2 0 0 Z " fill="#729FAD" transform="translate(638,765)"/>
<path d="M0 0 C4.101 1.404 6.981 3.371 10.312 6.125 C11.196 6.849 12.079 7.574 12.988 8.32 C13.652 8.875 14.316 9.429 15 10 C14.67 10.66 14.34 11.32 14 12 C11.851 10.38 9.705 8.754 7.562 7.125 C6.951 6.665 6.339 6.205 5.709 5.73 C1.113 2.227 1.113 2.227 0 0 Z " fill="#6896A4" transform="translate(299,706)"/>
<path d="M0 0 C4.86 0.607 8.741 2.728 13 5 C13 5.99 13 6.98 13 8 C8.71 5.69 4.42 3.38 0 1 C0 0.67 0 0.34 0 0 Z " fill="#6E9DAA" transform="translate(351,740)"/>
<path d="M0 0 C1.214 3.642 0.667 4.332 -0.938 7.688 C-1.318 8.496 -1.698 9.304 -2.09 10.137 C-2.39 10.752 -2.691 11.366 -3 12 C-3.66 12 -4.32 12 -5 12 C-4.424 7.245 -2.449 4.03 0 0 Z " fill="#6594A2" transform="translate(834,585)"/>
<path d="M0 0 C0 0.66 0 1.32 0 2 C-7.92 3.485 -7.92 3.485 -16 5 C-15.67 4.01 -15.34 3.02 -15 2 C-13.063 1.664 -11.125 1.331 -9.188 1 C-7.569 0.722 -7.569 0.722 -5.918 0.438 C-3 0 -3 0 0 0 Z " fill="#5E8F9E" transform="translate(539,579)"/>
<path d="M0 0 C4.626 1.814 8.327 3.543 12 7 C12.33 7.99 12.66 8.98 13 10 C9.553 8.468 6.934 6.347 4 4 C2.689 3.291 1.362 2.605 0 2 C0 1.34 0 0.68 0 0 Z " fill="#6494A2" transform="translate(528,438)"/>
<path d="M0 0 C1.273 0.934 2.543 1.873 3.812 2.812 C4.52 3.335 5.228 3.857 5.957 4.395 C7.785 5.831 9.399 7.318 11 9 C10.67 9.66 10.34 10.32 10 11 C8.327 9.548 6.662 8.089 5 6.625 C4.072 5.813 3.144 5.001 2.188 4.164 C1.466 3.45 0.744 2.736 0 2 C0 1.34 0 0.68 0 0 Z " fill="#6494A3" transform="translate(752,259)"/>
<path d="M0 0 C0.33 0.66 0.66 1.32 1 2 C0.074 3.945 0.074 3.945 -1.312 6.125 C-1.762 6.849 -2.212 7.574 -2.676 8.32 C-3.113 8.875 -3.55 9.429 -4 10 C-4.66 10 -5.32 10 -6 10 C-4.63 6.005 -2.743 3.2 0 0 Z " fill="#6796A4" transform="translate(819,617)"/>
<path d="M0 0 C3.118 0.75 6.181 1.634 9.25 2.562 C10.142 2.832 11.034 3.101 11.953 3.379 C12.629 3.584 13.304 3.789 14 4 C13.34 4.66 12.68 5.32 12 6 C8.962 5.598 6.452 4.334 3.75 2.938 C3.044 2.575 2.337 2.213 1.609 1.84 C1.078 1.563 0.547 1.286 0 1 C0 0.67 0 0.34 0 0 Z " fill="#6E9DAA" transform="translate(484,447)"/>
<path d="M0 0 C0 1.65 0 3.3 0 5 C-0.619 5.124 -1.238 5.248 -1.875 5.375 C-4.191 5.872 -4.191 5.872 -6 8 C-5.624 5.218 -5.327 3.412 -3.562 1.188 C-2 0 -2 0 0 0 Z " fill="#6B9AA8" transform="translate(505,424)"/>
<path d="M0 0 C2.438 0.375 2.438 0.375 5 1 C5.33 1.66 5.66 2.32 6 3 C4.68 3 3.36 3 2 3 C1.34 5.97 0.68 8.94 0 12 C-0.33 12 -0.66 12 -1 12 C-1.143 3.429 -1.143 3.429 0 0 Z " fill="#7DA9B4" transform="translate(516,456)"/>
<path d="M0 0 C1.417 4.251 0.193 6.719 -1 11 C-1.66 10.67 -2.32 10.34 -3 10 C-2.25 2.25 -2.25 2.25 0 0 Z " fill="#6998A6" transform="translate(848,543)"/>
<path d="M0 0 C0.66 0.66 1.32 1.32 2 2 C-2.308 6.923 -2.308 6.923 -5.812 7.312 C-6.895 7.158 -6.895 7.158 -8 7 C-7.237 6.402 -6.474 5.804 -5.688 5.188 C-3.652 3.53 -1.802 1.897 0 0 Z " fill="#6998A6" transform="translate(731,355)"/>
<path d="M0 0 C0 3 0 3 -1.312 4.387 C-2.875 5.591 -4.438 6.796 -6 8 C-6.66 7.67 -7.32 7.34 -8 7 C-5.36 4.69 -2.72 2.38 0 0 Z " fill="#6B99A7" transform="translate(741,707)"/>
<path d="M0 0 C-2.782 2.782 -5.159 2.596 -9 3 C-9.99 3 -10.98 3 -12 3 C-12 2.34 -12 1.68 -12 1 C-7.947 0.018 -4.161 -0.082 0 0 Z " fill="#729FAC" transform="translate(414,576)"/>
<path d="M0 0 C4.455 0.99 4.455 0.99 9 2 C9 2.66 9 3.32 9 4 C4.545 3.01 4.545 3.01 0 2 C0 1.34 0 0.68 0 0 Z " fill="#6696A5" transform="translate(702,580)"/>
<path d="M0 0 C2.64 0 5.28 0 8 0 C8.33 0.99 8.66 1.98 9 3 C6.36 3 3.72 3 1 3 C0.67 2.01 0.34 1.02 0 0 Z " fill="#6B9AA8" transform="translate(518,421)"/>
<path d="M0 0 C2.64 0.33 5.28 0.66 8 1 C8.33 1.99 8.66 2.98 9 4 C6.03 3.01 3.06 2.02 0 1 C0 0.67 0 0.34 0 0 Z " fill="#6C9BA9" transform="translate(405,763)"/>
<path d="M0 0 C0.99 0 1.98 0 3 0 C8 5.349 8 5.349 8 8 C3.794 6.498 2.261 3.714 0 0 Z " fill="#6494A2" transform="translate(255,664)"/>
<path d="M0 0 C0.99 0.99 1.98 1.98 3 3 C-2.94 3.495 -2.94 3.495 -9 4 C-6.014 2.009 -3.403 1.059 0 0 Z " fill="#7DAAB5" transform="translate(563,575)"/>
<path d="M0 0 C0.33 0.66 0.66 1.32 1 2 C0.064 4.36 -0.933 6.696 -2 9 C-2.66 8.34 -3.32 7.68 -4 7 C-1.125 1.125 -1.125 1.125 0 0 Z " fill="#6C9BA9" transform="translate(845,555)"/>
<path d="M0 0 C3.3 0.33 6.6 0.66 10 1 C9.34 1.66 8.68 2.32 8 3 C5.271 2.967 2.703 2.436 0 2 C0 1.34 0 0.68 0 0 Z " fill="#6D9CA9" transform="translate(697,538)"/>
<path d="M0 0 C2.352 0.599 4.686 1.269 7 2 C7.33 2.66 7.66 3.32 8 4 C4.7 3.34 1.4 2.68 -2 2 C-1.34 1.34 -0.68 0.68 0 0 Z " fill="#7AA7B3" transform="translate(417,766)"/>
<path d="M0 0 C6.875 2.75 6.875 2.75 8 5 C5.36 4.34 2.72 3.68 0 3 C0 2.01 0 1.02 0 0 Z " fill="#709EAB" transform="translate(394,758)"/>
<path d="M0 0 C0 3.106 -0.539 4.353 -2 7 C-2.99 6.67 -3.98 6.34 -5 6 C-3.63 2.839 -3.011 2.007 0 0 Z " fill="#6D9BA8" transform="translate(237,629)"/>
<path d="M0 0 C1.98 0 3.96 0 6 0 C3.64 2.36 2.221 2.491 -1 3 C-0.67 2.01 -0.34 1.02 0 0 Z " fill="#6997A5" transform="translate(524,581)"/>
<path d="M0 0 C1.65 0.33 3.3 0.66 5 1 C1.25 3 1.25 3 -1 3 C-0.67 2.01 -0.34 1.02 0 0 Z " fill="#77A3B0" transform="translate(506,541)"/>
<path d="M0 0 C0.33 0.99 0.66 1.98 1 3 C0.67 3.66 0.34 4.32 0 5 C-0.66 5 -1.32 5 -2 5 C-1.125 1.125 -1.125 1.125 0 0 Z " fill="#6695A3" transform="translate(842,564)"/>
<path d="M0 0 C1.65 0.33 3.3 0.66 5 1 C1.25 3 1.25 3 -1 3 C-0.67 2.01 -0.34 1.02 0 0 Z " fill="#79A5B1" transform="translate(540,533)"/>
<path d="M0 0 C0.99 0.66 1.98 1.32 3 2 C3 2.66 3 3.32 3 4 C0.525 3.01 0.525 3.01 -2 2 C-1.34 1.34 -0.68 0.68 0 0 Z " fill="#71A0AD" transform="translate(316,717)"/>
<path d="M0 0 C0.66 0 1.32 0 2 0 C2.33 1.32 2.66 2.64 3 4 C2.01 4 1.02 4 0 4 C0 2.68 0 1.36 0 0 Z " fill="#6192A0" transform="translate(338,595)"/>
<path d="M0 0 C1.98 0.495 1.98 0.495 4 1 C1.525 2.485 1.525 2.485 -1 4 C-0.67 2.68 -0.34 1.36 0 0 Z " fill="#6998A7" transform="translate(516,483)"/>
<path d="M0 0 C1.32 1.32 2.64 2.64 4 4 C3.01 4 2.02 4 1 4 C0.67 2.68 0.34 1.36 0 0 Z " fill="#6B9AA7" transform="translate(537,443)"/>
<path d="M0 0 C0.66 0 1.32 0 2 0 C2.33 0.99 2.66 1.98 3 3 C1.68 3 0.36 3 -1 3 C-0.67 2.01 -0.34 1.02 0 0 Z " fill="#4E8BA0" transform="translate(501,429)"/>
<path d="M0 0 C0.33 1.32 0.66 2.64 1 4 C-0.32 3.67 -1.64 3.34 -3 3 C-2.01 2.01 -1.02 1.02 0 0 Z " fill="#5F909E" transform="translate(504,404)"/>
<path d="M0 0 C1.32 0.33 2.64 0.66 4 1 C4 1.66 4 2.32 4 3 C2.68 2.67 1.36 2.34 0 2 C0 1.34 0 0.68 0 0 Z " fill="#6594A2" transform="translate(702,580)"/>
<path d="M0 0 C0.66 0 1.32 0 2 0 C1.34 1.32 0.68 2.64 0 4 C0 2.68 0 1.36 0 0 Z " fill="#76A2AE" transform="translate(840,569)"/>
<path d="M0 0 C1.98 0.99 1.98 0.99 4 2 C3.67 2.66 3.34 3.32 3 4 C2.01 3.34 1.02 2.68 0 2 C0 1.34 0 0.68 0 0 Z " fill="#6D9BA8" transform="translate(742,251)"/>
<path d="M0 0 C1.98 0.99 1.98 0.99 4 2 C3.01 2.33 2.02 2.66 1 3 C0.67 2.01 0.34 1.02 0 0 Z " fill="#6C9BA9" transform="translate(421,767)"/>
<path d="M0 0 C0.66 0 1.32 0 2 0 C1.67 0.99 1.34 1.98 1 3 C0.34 3 -0.32 3 -1 3 C-0.67 2.01 -0.34 1.02 0 0 Z " fill="#99BCC4" transform="translate(802,314)"/>
<path d="M0 0 C0.99 0.33 1.98 0.66 3 1 C3 1.66 3 2.32 3 3 C2.01 2.67 1.02 2.34 0 2 C0 1.34 0 0.68 0 0 Z " fill="#6D9CAA" transform="translate(411,764)"/>
<path d="M0 0 C0.66 0.33 1.32 0.66 2 1 C2 1.66 2 2.32 2 3 C1.01 3 0.02 3 -1 3 C-0.67 2.01 -0.34 1.02 0 0 Z " fill="#5D8E9D" transform="translate(520,402)"/>
</svg>